<?xml version="1.0" encoding="UTF-8" standalone="no"?>
<svg
   xmlns:dc="http://purl.org/dc/elements/1.1/"
   xmlns:cc="http://creativecommons.org/ns#"
   xmlns:rdf="http://www.w3.org/1999/02/22-rdf-syntax-ns#"
   xmlns:svg="http://www.w3.org/2000/svg"
   xmlns="http://www.w3.org/2000/svg"
   xmlns:sodipodi="http://sodipodi.sourceforge.net/DTD/sodipodi-0.dtd"
   xmlns:inkscape="http://www.inkscape.org/namespaces/inkscape"
   version="1.1"
   id="Layer_1"
   x="0px"
   y="0px"
   viewBox="0 0 512 512"
   style="enable-background:new 0 0 512 512;"
   xml:space="preserve"
   sodipodi:docname="left-arrow.svg"
   inkscape:version="1.0.1 (3bc2e813f5, 2020-09-07)"><metadata
   id="metadata47"><rdf:RDF><cc:Work
       rdf:about=""><dc:format>image/svg+xml</dc:format><dc:type
         rdf:resource="http://purl.org/dc/dcmitype/StillImage" /><dc:title /></cc:Work></rdf:RDF></metadata><defs
   id="defs45">
		
	</defs><sodipodi:namedview
   pagecolor="#ffffff"
   bordercolor="#666666"
   borderopacity="1"
   objecttolerance="10"
   gridtolerance="10"
   guidetolerance="10"
   inkscape:pageopacity="0"
   inkscape:pageshadow="2"
   inkscape:window-width="1920"
   inkscape:window-height="1017"
   id="namedview43"
   showgrid="false"
   inkscape:zoom="1.1739077"
   inkscape:cx="254.16786"
   inkscape:cy="249.26343"
   inkscape:window-x="-8"
   inkscape:window-y="-8"
   inkscape:window-maximized="1"
   inkscape:current-layer="g10"
   inkscape:document-rotation="0" />
<g
   id="g10"
   transform="rotate(90,256,256)">
	<g
   id="g6"
   style="fill:#414141;fill-opacity:1;opacity:1">
			<path
   d="M 256,0 C 114.618,0 0,114.618 0,256 0,397.382 114.618,512 256,512 397.382,512 512,397.382 512,256 512,114.618 397.382,0 256,0 Z m 0,469.333 C 138.182,469.333 42.667,373.818 42.667,256 42.667,138.182 138.182,42.667 256,42.667 c 117.818,0 213.333,95.515 213.333,213.333 0,117.818 -95.515,213.333 -213.333,213.333 z"
   id="path2"
   style="fill:#414141;fill-opacity:1" />
			<path
   d="M 347.582,198.248 256,289.83 164.418,198.248 c -8.331,-8.331 -21.839,-8.331 -30.17,0 -8.331,8.331 -8.331,21.839 0,30.17 l 106.667,106.667 c 8.331,8.331 21.839,8.331 30.17,0 L 377.752,228.418 c 8.331,-8.331 8.331,-21.839 0,-30.17 -8.332,-8.331 -21.839,-8.331 -30.17,0 z"
   id="path4"
   style="fill:#414141;fill-opacity:1" />
		</g>
</g>
<g
   id="g12">
</g>
<g
   id="g14">
</g>
<g
   id="g16">
</g>
<g
   id="g18">
</g>
<g
   id="g20">
</g>
<g
   id="g22">
</g>
<g
   id="g24">
</g>
<g
   id="g26">
</g>
<g
   id="g28">
</g>
<g
   id="g30">
</g>
<g
   id="g32">
</g>
<g
   id="g34">
</g>
<g
   id="g36">
</g>
<g
   id="g38">
</g>
<g
   id="g40">
</g>
</svg>
